<svg width="28" height="25" viewBox="0 0 512 512" xmlns="http://www.w3.org/2000/svg">
    <g id="Outline" fill="rgb(0,0,0)"
       stroke="#9B9B9B"
       stroke-width="10">
        <path d="m171.79 215.55a7.57 7.57 0 0 0 7.87 0c2.67-1.59 32.2-19.65 38.42-43.21 3.62-13.72-.71-22.12-5-26.76-11.48-11.85-27.53-10-37.28-.83-9.73-9.16-25.78-11.11-37.29.7-4.28 4.63-8.64 13-5.07 26.75 6.21 23.72 36.03 41.96 38.35 43.35zm-22.26-59.92c8.69-8.18 17.3.24 19.7 4.28a7.5 7.5 0 0 0 13.12 0c2.29-3.84 10.92-12.51 19.71-4.22 2.52 2.74 3 7 1.52 12.78-3.43 12.95-18.85 25.65-27.85 31.76-9-6.14-24.37-18.89-27.75-31.86-1.5-5.72-.98-10.01 1.55-12.74z"
              stroke="#9B9B9B"
              fill="rgb(0,0,0)"
              style="fill: rgb(155, 155, 155);">
        </path>
        <path d="m171.79 330.11a7.57 7.57 0 0 0 7.87 0c2.67-1.59 32.2-19.65 38.42-43.21 3.62-13.71-.71-22.12-5-26.76-11.48-11.85-27.53-10-37.28-.83-9.73-9.16-25.78-11.11-37.29.7-4.28 4.63-8.64 13-5.07 26.75 6.21 23.72 36.03 41.96 38.35 43.35zm-22.26-59.92c8.69-8.18 17.3.24 19.7 4.28a7.5 7.5 0 0 0 13.12 0c2.29-3.84 10.92-12.51 19.71-4.21 2.52 2.73 3 7 1.52 12.77-3.43 13-18.85 25.65-27.85 31.76-9-6.14-24.37-18.89-27.75-31.85-1.5-5.73-.98-10.02 1.55-12.75z"
              fill="rgb(0,0,0)"
              style="fill: rgb(155, 155, 155);">
        </path>
        <path d="m171.79 444.67a7.55 7.55 0 0 0 7.92-.05c3-1.79 32.19-19.77 38.37-43.18 3.62-13.71-.71-22.12-5-26.76-11.48-11.85-27.54-10-37.28-.82-9.73-9.17-25.78-11.12-37.29.7-4.28 4.62-8.64 13-5.07 26.74 6.21 23.7 36.04 41.99 38.35 43.37zm-22.26-59.92c8.69-8.18 17.3.24 19.7 4.28a7.47 7.47 0 0 0 13.08.08c2.28-3.84 10.92-12.6 19.75-4.27 2.52 2.74 3 7 1.52 12.77-3.43 13-18.86 25.66-27.86 31.77-9-6.12-24.35-18.84-27.74-31.86-1.5-5.75-.98-10.04 1.55-12.77z"
              fill="rgb(0,0,0)"
              style="fill: rgb(155, 155, 155);">
        </path>
        <path d="m124 483.57h264a31.2 31.2 0 0 0 31.16-31.16v-356a31.19 31.19 0 0 0 -31.16-31.18h-50.56v-5.63a31.2 31.2 0 0 0 -31.17-31.17h-100.54a31.2 31.2 0 0 0 -31.17 31.17v5.63h-50.56a31.19 31.19 0 0 0 -31.18 31.15v356a31.2 31.2 0 0 0 31.18 31.19zm65.58-424a16.19 16.19 0 0 1 16.17-16.17h100.52a16.19 16.19 0 0 1 16.17 16.2v24.47h-132.88zm-81.76 36.81a16.17 16.17 0 0 1 16.18-16.15h50.58v11.34a7.5 7.5 0 0 0 7.5 7.5h147.86a7.5 7.5 0 0 0 7.5-7.5v-11.34h50.56a16.17 16.17 0 0 1 16.16 16.15v356a16.18 16.18 0 0 1 -16.16 16.19h-264a16.18 16.18 0 0 1 -16.16-16.16z"
              fill="rgb(0,0,0)"
              style="fill: rgb(155, 155, 155);">
        </path>
        <path d="m247.16 167.9h125.4a7.5 7.5 0 0 0 0-15h-125.4c-9.9.33-9.96 14.65 0 15z"
              fill="rgb(0,0,0)"
              style="fill: rgb(155, 155, 155);">
        </path>
        <path d="m247.16 282.47h125.4a7.5 7.5 0 0 0 0-15h-125.4c-9.9.32-9.96 14.64 0 15z"
              fill="rgb(0,0,0)"
              style="fill: rgb(155, 155, 155);">
        </path>
        <path d="m247.16 397h125.4a7.5 7.5 0 0 0 0-15h-125.4c-9.9.35-9.96 14.68 0 15z"
              fill="rgb(0,0,0)"
              style="fill: rgb(155, 155, 155);">
        </path>
        <path d="m247.16 200.9h125.4a7.5 7.5 0 0 0 0-15h-125.4c-9.9.33-9.96 14.65 0 15z"
              fill="rgb(0,0,0)"
              style="fill: rgb(155, 155, 155);">
        </path>
        <path d="m247.16 315.47h125.4a7.5 7.5 0 0 0 0-15h-125.4c-9.9.32-9.96 14.64 0 15z"
              fill="rgb(0,0,0)"
              style="fill: rgb(155, 155, 155);">
        </path>
        <path d="m247.16 430h125.4a7.5 7.5 0 0 0 0-15h-125.4c-9.9.35-9.96 14.68 0 15z"
              fill="rgb(0,0,0)"
              style="fill: rgb(155, 155, 155);">
        </path>
    </g>
</svg>