<svg width="24" height="24" viewBox="0 -15 512.001 512" xmlns="http://www.w3.org/2000/svg">
    <path d="m85.894531 252.601562c4.140625 0 7.5-3.355468 7.5-7.5v-46.742187c3.179688 1.402344 5.652344 3.726563 8.621094 6.519531 5.703125 5.363282 12.796875 12.035156 26.402344 12.035156s20.699219-6.671874 26.398437-12.035156c4.914063-4.625 8.464844-7.964844 16.121094-7.964844s11.207031 3.339844 16.125 7.964844c5.699219 5.363282 12.796875 12.035156 26.398438 12.035156 13.605468 0 20.699218-6.671874 26.402343-12.035156 4.914063-4.625 8.464844-7.964844 16.125-7.964844 7.65625 0 11.207031 3.339844 16.125 7.964844 5.699219 5.363282 12.796875 12.035156 26.402344 12.035156 13.601563 0 20.699219-6.671874 26.398437-12.035156 4.917969-4.625 8.46875-7.964844 16.125-7.964844 7.660157 0 11.214844 3.339844 16.128907 7.964844 5.703125 5.363282 12.800781 12.035156 26.402343 12.035156 13.609376 0 20.703126-6.671874 26.40625-12.035156 2.972657-2.792968 5.445313-5.121094 8.628907-6.523437v46.746093c0 4.144532 3.355469 7.5 7.5 7.5 4.140625 0 7.5-3.355468 7.5-7.5v-66.792968c0-19.804688-16.117188-35.921875-35.921875-35.921875h-106.519532c24.8125-18.53125 55.335938-49.394531 55.335938-89.039063 0-29.414062-23.933594-53.347656-53.347656-53.347656-13.9375 0-27.273438 5.511719-37.152344 15.078125-9.878906-9.566406-23.21875-15.078125-37.152344-15.078125-29.414062 0-53.347656 23.933594-53.347656 53.347656 0 39.644532 30.523438 70.507813 55.335938 89.039063h-106.523438c-19.804688 0-35.917969 16.117187-35.917969 35.921875v66.792968c0 4.144532 3.355469 7.5 7.5 7.5zm94.605469-199.253906c0-21.144531 17.203125-38.347656 38.347656-38.347656 12.257813 0 23.875 5.9375 31.078125 15.878906 1.410157 1.949219 3.671875 3.101563 6.074219 3.101563s4.664062-1.152344 6.074219-3.101563c7.203125-9.941406 18.820312-15.878906 31.078125-15.878906 21.144531 0 38.347656 17.203125 38.347656 38.347656 0 43.476563-45.640625 76.074219-67.203125 89.039063h-16.59375c-21.5625-12.964844-67.203125-45.5625-67.203125-89.039063zm-66.1875 104.039063h283.371094c11.539062 0 20.921875 9.386719 20.921875 20.921875v4.359375c-8.917969 1.890625-14.355469 7.003906-18.902344 11.28125-4.917969 4.625-8.46875 7.964843-16.128906 7.964843-7.660157 0-11.210938-3.339843-16.128907-7.960937-5.699218-5.363281-12.796874-12.039063-26.402343-12.039063s-20.699219 6.675782-26.402344 12.039063c-4.914063 4.621094-8.464844 7.960937-16.125 7.960937s-11.210937-3.339843-16.125-7.960937c-5.703125-5.363281-12.796875-12.039063-26.402344-12.039063-13.601562 0-20.699219 6.675782-26.398437 12.039063-4.917969 4.621094-8.46875 7.960937-16.125 7.960937-7.660156 0-11.210938-3.339843-16.125-7.960937-5.699219-5.363281-12.796875-12.039063-26.402344-12.039063-13.601562 0-20.695312 6.675782-26.398438 12.039063-4.910156 4.621094-8.464843 7.960937-16.117187 7.960937-7.660156 0-11.210937-3.339843-16.125-7.960937-4.550781-4.28125-9.984375-9.390625-18.902344-11.285156v-4.359375c0-11.535156 9.382813-20.921875 20.917969-20.921875zm0 0"
          fill="rgb(155, 155, 155)"
          stroke="#9B9B9B"
          stroke-width="0">
    </path>
    <path d="m487.570312 432.25h-9.957031v-121.394531c0-23.859375-19.410156-43.273438-43.273437-43.273438h-356.679688c-23.863281 0-43.273437 19.414063-43.273437 43.273438v121.394531h-9.957031c-13.472657 0-24.429688 10.957031-24.429688 24.425781s10.957031 24.425781 24.429688 24.425781h463.144531c13.46875 0 24.425781-10.957031 24.425781-24.425781s-10.957031-24.425781-24.429688-24.425781zm-409.910156-149.667969h356.679688c15.59375 0 28.273437 12.683594 28.273437 28.273438v6.664062c-8.980469 1.886719-14.453125 6.996094-19.03125 11.273438-4.960937 4.632812-8.546875 7.984375-16.296875 7.984375s-11.335937-3.351563-16.296875-7.984375c-5.730469-5.351563-12.867187-12.015625-26.53125-12.015625-13.664062 0-20.796875 6.664062-26.53125 12.015625-4.960937 4.632812-8.542969 7.984375-16.289062 7.984375-7.75 0-11.332031-3.351563-16.292969-7.984375-5.734375-5.351563-12.867188-12.015625-26.53125-12.015625s-20.800781 6.664062-26.53125 12.015625c-4.960938 4.632812-8.542969 7.984375-16.292969 7.984375-7.746093 0-11.332031-3.351563-16.289062-7.984375-5.734375-5.351563-12.867188-12.015625-26.53125-12.015625-13.660157 0-20.796875 6.664062-26.527344 12.019531-4.960937 4.632813-8.542969 7.980469-16.289063 7.980469-7.746093 0-11.332031-3.351563-16.292968-7.984375-5.730469-5.351563-12.863282-12.015625-26.527344-12.015625s-20.796875 6.664062-26.53125 12.015625c-4.960938 4.632812-8.542969 7.984375-16.289062 7.984375-7.75 0-11.332032-3.351563-16.292969-7.984375-4.578125-4.277344-10.050781-9.386719-19.03125-11.273438v-6.664062c0-15.589844 12.679687-28.273438 28.273437-28.273438zm409.910156 183.519531h-463.140624c-5.199219 0-9.429688-4.226562-9.429688-9.425781s4.230469-9.425781 9.429688-9.425781h61.464843c4.140625 0 7.5-3.359375 7.5-7.5 0-4.144531-3.359375-7.5-7.5-7.5h-36.507812v-99.066406c3.253906 1.402344 5.765625 3.746094 8.789062 6.574218 5.734375 5.355469 12.867188 12.019532 26.53125 12.019532 13.664063 0 20.796875-6.664063 26.53125-12.019532 4.960938-4.632812 8.542969-7.980468 16.289063-7.980468 7.75 0 11.332031 3.347656 16.292968 7.976562 5.730469 5.355469 12.867188 12.023438 26.53125 12.023438 13.660157 0 20.792969-6.667969 26.527344-12.023438 4.957032-4.632812 8.542969-7.976562 16.285156-7.976562 7.75 0 11.332032 3.347656 16.292969 7.976562 5.730469 5.355469 12.867188 12.023438 26.53125 12.023438 13.664063 0 20.796875-6.664063 26.527344-12.019532 4.960937-4.632812 8.546875-7.980468 16.292969-7.980468 7.75 0 11.332031 3.347656 16.292968 7.980468 5.734376 5.355469 12.867188 12.019532 26.53125 12.019532 13.664063 0 20.796876-6.664063 26.53125-12.019532 4.960938-4.632812 8.542969-7.980468 16.289063-7.980468 7.75 0 11.335937 3.347656 16.296875 7.980468 5.734375 5.355469 12.867188 12.019532 26.535156 12.019532 13.664063 0 20.800782-6.664063 26.53125-12.019532 3.027344-2.828124 5.539063-5.171874 8.796875-6.574218v99.066406h-346.71875c-4.144531 0-7.5 3.355469-7.5 7.5 0 4.140625 3.355469 7.5 7.5 7.5h371.679688c5.195312 0 9.425781 4.226562 9.425781 9.425781s-4.230469 9.425781-9.429688 9.425781zm0 0"
          fill="rgb(155, 155, 155)"
          stroke="#9B9B9B"
          stroke-width="0">
    </path>
</svg>