
<svg id="Capa_1" enable-background="new 0 0 391.324 391.324" viewBox="0 0 391.324 391.324"
     xmlns="http://www.w3.org/2000/svg" width="30" height="30">>
    <g>
        <g>
            <g>
                <path d="m348.336 363.354h-303.512c-4.011 0-7.259-3.248-7.259-7.259v-188.973c0-4.011 3.248-7.259 7.259-7.259h303.512c4.011 0 7.259 3.248 7.259 7.259v188.972c-.001 3.996-3.249 7.26-7.259 7.26zm-296.253-14.518h288.994v-174.455h-288.994z"
                      style="fill: rgb(155, 155, 155);"
                      stroke="#9B9B9B"
                      stroke-width="8">
                </path>
            </g>
            <g>
                <path d="m384.05 174.366c-.015 0-.03 0-.03 0h-376.756c-2.425 0-4.697-1.22-6.054-3.248-1.342-2.028-1.586-4.59-.64-6.832l37.56-89.057c1.128-2.684 3.767-4.438 6.695-4.438h303.512c2.974 0 5.627 1.799 6.74 4.56l35.425 88.402c.518 1.006.823 2.135.823 3.355-.016 4.01-3.264 7.258-7.275 7.258zm-365.852-14.502h355.086l-29.874-74.54h-293.767z"
                      style="fill: rgb(155, 155, 155);"
                      stroke="#9B9B9B"
                      stroke-width="6">
                </path>
            </g>
            <g>
                <path d="m348.336 85.324h-303.512c-4.011 0-7.259-3.248-7.259-7.259v-42.836c0-4.011 3.248-7.259 7.259-7.259h303.512c4.011 0 7.259 3.248 7.259 7.259v42.836c-.001 4.011-3.249 7.259-7.259 7.259zm-296.253-14.518h288.994v-28.318h-288.994z"
                      style="fill: rgb(155, 155, 155);"
                      stroke="#9B9B9B"
                      stroke-width="6">
                </path>
            </g>
            <g>
                <path d="m196.572 174.366c-4.011 0-7.259-3.248-7.259-7.259v-89.057c0-4.011 3.248-7.259 7.259-7.259s7.259 3.248 7.259 7.259v89.057c0 4.011-3.248 7.259-7.259 7.259z"
                      style="fill: rgb(155, 155, 155);"
                      stroke="#9B9B9B"
                      stroke-width="6">
                </path>
            </g>
            <g>
                <path d="m241.268 174.366c-3.873 0-7.076-3.05-7.244-6.954l-3.751-89.057c-.168-4.011 2.943-7.396 6.939-7.564 3.965-.198 7.381 2.943 7.564 6.939l3.751 89.057c.168 4.011-2.943 7.396-6.939 7.564-.121.015-.213.015-.32.015z"
                      style="fill: rgb(155, 155, 155);"
                      stroke="#9B9B9B"
                      stroke-width="6">
                </path>
            </g>
            <g>
                <path d="m289.716 174.366c-3.599 0-6.725-2.684-7.198-6.344l-11.269-89.057c-.503-3.98 2.318-7.61 6.283-8.113 3.98-.503 7.61 2.318 8.113 6.283l11.269 89.057c.503 3.98-2.318 7.61-6.283 8.113-.305.046-.61.061-.915.061z"
                      style="fill: rgb(155, 155, 155);"
                      stroke="#9B9B9B"
                      stroke-width="6">
                </path>
            </g>
            <g>
                <path d="m340.04 174.381c-3.294 0-6.283-2.272-7.061-5.612l-20.663-89.057c-.9-3.904 1.525-7.808 5.429-8.707 3.904-.9 7.808 1.525 8.707 5.429l20.663 89.057c.9 3.904-1.525 7.808-5.429 8.707-.548.122-1.097.183-1.646.183z"
                      style="fill: rgb(155, 155, 155);"
                      stroke="#9B9B9B"
                      stroke-width="6">
                </path>
            </g>
            <g>
                <path d="m53.119 174.381c-.549 0-1.098-.061-1.647-.183-3.904-.9-6.344-4.804-5.429-8.707l20.663-89.057c.9-3.904 4.804-6.329 8.707-5.429 3.904.9 6.344 4.804 5.429 8.707l-20.662 89.057c-.778 3.34-3.767 5.612-7.061 5.612z"
                      style="fill: rgb(155, 155, 155);"
                      stroke="#9B9B9B"
                      stroke-width="6">
                </path>
            </g>
            <g>
                <path d="m103.443 174.366c-.305 0-.61-.015-.915-.061-3.98-.503-6.786-4.133-6.283-8.113l11.269-89.057c.503-3.98 4.117-6.801 8.113-6.283 3.98.503 6.786 4.133 6.283 8.113l-11.269 89.057c-.473 3.675-3.599 6.344-7.198 6.344z"
                      style="fill: rgb(155, 155, 155);"
                      stroke="#9B9B9B"
                      stroke-width="6">
                </path>
            </g>
            <g>
                <path d="m151.891 174.366c-.107 0-.213 0-.305 0-4.011-.168-7.122-3.553-6.939-7.564l3.751-89.057c.168-4.011 3.553-7.152 7.564-6.939 4.011.168 7.122 3.553 6.939 7.564l-3.751 89.057c-.183 3.889-3.386 6.939-7.259 6.939z"
                      style="fill: rgb(155, 155, 155);"
                      stroke="#9B9B9B"
                      stroke-width="6">
                </path>
            </g>
            <g>
                <path d="m292.644 363.354h-79.237c-4.011 0-7.259-3.248-7.259-7.259v-131.848c0-4.011 3.248-7.259 7.259-7.259h79.237c4.011 0 7.259 3.248 7.259 7.259v131.848c0 3.995-3.248 7.259-7.259 7.259zm-71.978-14.518h64.719v-117.33h-64.719z"
                      style="fill: rgb(155, 155, 155);"
                      stroke="#9B9B9B"
                      stroke-width="6">
                </path>
            </g>
            <g>
                <path d="m173.789 309.813h-78.306c-4.011 0-7.259-3.248-7.259-7.259v-78.306c0-4.011 3.248-7.259 7.259-7.259h78.306c4.011 0 7.259 3.248 7.259 7.259v78.306c0 4.01-3.248 7.259-7.259 7.259zm-71.063-14.518h63.804v-63.804h-63.804z"
                      style="fill: rgb(155, 155, 155);"
                      stroke="#9B9B9B"
                      stroke-width="6">
                </path>
            </g>
        </g>
    </g>
</svg>